<svg xmlns="http://www.w3.org/2000/svg" version="1.1" xmlns:xlink="http://www.w3.org/1999/xlink" xmlns:svgjs="http://svgjs.dev/svgjs" width="1000" height="138" viewBox="0 0 1000 138"><g transform="matrix(1,0,0,1,-0.6060516987460005,-0.034900949912255896)"><svg viewBox="0 0 396 55" data-background-color="#ffffff" preserveAspectRatio="xMidYMid meet" height="138" width="1000" xmlns="http://www.w3.org/2000/svg" xmlns:xlink="http://www.w3.org/1999/xlink"><g id="tight-bounds" transform="matrix(1,0,0,1,0.2399964727034103,0.013909798878074753)"><svg viewBox="0 0 395.52 54.97218040224387" height="54.97218040224387" width="395.52"><g><svg viewBox="0 0 482.4017930804158 67.04762943866945" height="54.97218040224387" width="395.52"><g transform="matrix(1,0,0,1,86.8817930804158,9.266351101871106)"><svg viewBox="0 0 395.52 48.514927234927235" height="48.514927234927235" width="395.52"><g id="textblocktransform"><svg viewBox="0 0 395.52 48.514927234927235" height="48.514927234927235" width="395.52" id="textblock"><g><svg viewBox="0 0 395.52 48.514927234927235" height="48.514927234927235" width="395.52"><g transform="matrix(1,0,0,1,0,0)"><svg width="395.52" viewBox="3.5 -40.29999923706055 336.67999267578125 41.29999923706055" height="48.514927234927235" data-palette-color="#010c80"><path d="M38.1-40.2L38.1-27.7 36.6-27.2 29.95-37.05 23.85-37.05 23.85-3.8 29.1-2 28.1 0 12.9 0 12.9-1.55 17.6-5.25 17.6-37.05 11.65-37.05 5-27.2 3.5-27.7 3.5-40.2 6.2-39.3 35.4-39.3 38.1-40.2ZM82.1-1.9L81.1 0.1 71.8 0.1 60.8-17.65 58.45-19.35 59.2-20.85 62-20.85Q65.4-20.85 67.37-22.58 69.35-24.3 69.35-27.3L69.35-27.3Q69.35-31.25 67.15-33.88 64.95-36.5 60.75-36.5L60.75-36.5Q57.95-36.5 55.6-34.85L55.6-34.85 55.6-3.7 60.85-1.9 59.85 0.1 44.65 0.1 44.65-1.45 49.35-5.15 49.35-35.55 44.15-37.25 45.15-39.25 50.95-39.25Q55.5-39.25 59.9-39.55L59.9-39.55Q63.1-39.75 64.65-39.75L64.65-39.75Q68-39.75 70.62-38.4 73.25-37.05 74.67-34.75 76.1-32.45 76.1-29.7L76.1-29.7Q76.1-27.2 74.55-24.93 73-22.65 70.47-20.98 67.95-19.3 65.15-18.45L65.15-18.45 68.4-17.35 76.15-4.85 82.1-1.9ZM107.05-40.3Q112.35-40.3 116.42-37.75 120.5-35.2 122.75-30.7 125-26.2 125-20.5L125-20.5Q125-14.65 121.6-9.7 118.2-4.75 113.15-1.88 108.1 1 103.5 1L103.5 1Q98.2 1 94.12-1.53 90.05-4.05 87.8-8.55 85.55-13.05 85.55-18.75L85.55-18.75Q85.55-24.6 88.95-29.58 92.35-34.55 97.4-37.43 102.45-40.3 107.05-40.3L107.05-40.3ZM104.15-36.1Q100.85-36.1 98.12-34.18 95.4-32.25 93.85-28.83 92.3-25.4 92.3-21.15L92.3-21.15Q92.3-16.25 93.85-12.18 95.4-8.1 98.57-5.65 101.75-3.2 106.4-3.2L106.4-3.2Q109.7-3.2 112.42-5.13 115.15-7.05 116.7-10.48 118.25-13.9 118.25-18.15L118.25-18.15Q118.25-23.1 116.7-27.18 115.15-31.25 112-33.68 108.85-36.1 104.15-36.1L104.15-36.1ZM147.69-2L146.69 0 131.49 0 131.49-1.55 136.19-5.25 136.19-35.55 130.99-37.3 131.99-39.3 147.19-39.3 147.19-37.75 142.44-34.05 142.44-3.8 147.69-2ZM206.24-2L205.24 0 190.04 0 190.04-1.55 193.99-4.6 184.49-16.6 174.09-4.85 181.34-2 180.34 0 165.14 0 165.14-1.55 170.69-4.95 182.94-18.6 170.69-34.25 165.64-37.3 166.64-39.3 181.84-39.3 181.84-37.75 177.89-34.7 187.34-22.8 196.89-34.4 189.59-37.3 190.59-39.3 205.79-39.3 205.79-37.75 200.64-34.6 188.99-20.75 201.24-5.05 206.24-2ZM251.28-2L250.28 0 235.09 0 235.09-1.55 239.78-5.2 235.94-14.45 219.13-14.45 215.03-5 223.84-2 222.84 0 207.63 0 207.63-1.55 212.34-5.25 226.48-37.7 231.69-40.25 246.28-5.05 251.28-2ZM235.03-16.7L227.74-34.25 220.13-16.7 235.03-16.7ZM292.98-37.7L288.23-34 288.23 0.05 285.48 0.05 261.73-30 261.73-4.6 266.98-1.95 265.98 0.05 254.28 0.05 254.28-1.5 258.98-5.2 258.98-34.5 253.78-37.3 254.78-39.3 262.33-39.3 285.48-10 285.48-34.7 280.28-37.3 281.28-39.3 292.98-39.3 292.98-37.7ZM340.18-2L339.18 0 323.98 0 323.98-1.55 328.68-5.25 328.68-18.45 308.93-18.45 308.93-3.8 314.18-2 313.18 0 297.98 0 297.98-1.55 302.68-5.25 302.68-35.55 297.48-37.3 298.48-39.3 313.68-39.3 313.68-37.75 308.93-34.05 308.93-20.7 328.68-20.7 328.68-35.55 323.48-37.3 324.48-39.3 339.68-39.3 339.68-37.75 334.93-34.05 334.93-3.8 340.18-2Z" opacity="1" transform="matrix(1,0,0,1,0,0)" fill="#010c80" class="undefined-text-0" data-fill-palette-color="primary" id="text-0"></path></svg></g></svg></g></svg></g></svg></g><g><svg viewBox="0 0 75.42858311850313 67.04762943866945" height="67.04762943866945" width="75.42858311850313"><g><svg version="1.1" xmlns="http://www.w3.org/2000/svg" xmlns:xlink="http://www.w3.org/1999/xlink" x="0" y="0" viewBox="0 0 99.9990005493164 88.88800048828125" enable-background="new 0 0 100 88.888" xml:space="preserve" width="75.42858311850313" height="67.04762943866945" class="icon-icon-0" data-fill-palette-color="accent" id="icon-0"><path fill="#77d4fc" d="M96.295 48.146h-7.408c-2.045 0-3.704-1.657-3.704-3.703 0-2.045 1.659-3.701 3.704-3.701h7.408c2.044 0 3.704 1.658 3.704 3.701C100 46.489 98.339 48.146 96.295 48.146z" data-fill-palette-color="accent"></path><path fill="#77d4fc" d="M81.744 23.492c-1.447 1.446-3.791 1.446-5.238 0-1.447-1.445-1.447-3.791 0-5.236l5.238-5.238c1.446-1.446 3.791-1.446 5.237 0 1.447 1.445 1.447 3.792 0 5.238L81.744 23.492z" data-fill-palette-color="accent"></path><path fill="#77d4fc" d="M76.285 52.396c0.947-2.471 1.49-5.147 1.494-7.953 0-12.27-9.951-22.222-22.226-22.222-7.142 0-13.481 3.384-17.547 8.619-2.653-0.781-5.465-1.21-8.377-1.21C13.266 29.63 0 42.895 0 59.258c0 16.365 13.266 29.63 29.629 29.63 5.921 0 24.491 0 29.628 0 12.274 0 22.226-9.951 22.226-22.222C81.483 61.232 79.526 56.259 76.285 52.396zM55.553 29.63c8.183 0 14.817 6.634 14.817 14.813 0 0.969-0.102 1.912-0.279 2.828-3.204-1.793-6.897-2.828-10.834-2.828-1.289 0-2.535 0.17-3.766 0.38C53.003 40.375 49.4 36.64 45.067 33.98 47.747 31.293 51.456 29.63 55.553 29.63zM59.257 81.48c-5.592 0-22.933 0-29.63 0-12.273 0-22.221-9.948-22.221-22.222s9.948-22.22 22.221-22.22c10.541 0 19.325 7.358 21.604 17.204 2.315-1.498 5.062-2.392 8.026-2.392 8.183 0 14.813 6.635 14.813 14.816C74.071 74.846 67.44 81.48 59.257 81.48z" data-fill-palette-color="accent"></path><path fill="#77d4fc" d="M55.553 14.813c-2.045 0-3.704-1.658-3.704-3.702V3.704c0-2.046 1.66-3.704 3.704-3.704 2.046 0 3.704 1.658 3.704 3.704v7.407C59.257 13.157 57.601 14.813 55.553 14.813z" data-fill-palette-color="accent"></path><path fill="#77d4fc" d="M29.365 23.492l-5.236-5.236c-1.447-1.446-1.447-3.793 0-5.238 1.444-1.446 3.791-1.446 5.236 0l5.237 5.238c1.447 1.445 1.447 3.791 0 5.236C33.158 24.938 30.811 24.938 29.365 23.492z" data-fill-palette-color="accent"></path></svg></g></svg></g></svg></g><defs></defs></svg><rect width="395.52" height="54.97218040224387" fill="none" stroke="none" visibility="hidden"></rect></g></svg></g></svg>